<svg width="23" height="17" viewBox="0 0 23 17" fill="none" xmlns="http://www.w3.org/2000/svg">
<path d="M10.6953 7C12.362 7 15.6953 5.8 15.6953 1" stroke="#121212" stroke-width="2" stroke-linecap="round"/>
<path d="M11.6953 7C10.0286 7 6.69531 5.8 6.69531 1" stroke="#121212" stroke-width="2" stroke-linecap="round"/>
<path d="M10.6953 10C12.362 10 15.6953 11.2 15.6953 16" stroke="#121212" stroke-width="2" stroke-linecap="round"/>
<path d="M13.7374 9.33008C14.5708 7.8867 17.2767 5.59995 21.4336 7.99995" stroke="#121212" stroke-width="2" stroke-linecap="round"/>
<path d="M13.6172 10.3165C15.0606 9.48321 18.5473 8.85577 20.9473 13.0127" stroke="#121212" stroke-width="2" stroke-linecap="round"/>
<path d="M8.69531 10.3165C7.25194 9.48321 3.76519 8.85577 1.36519 13.0127" stroke="#121212" stroke-width="2" stroke-linecap="round"/>
<path d="M8.69615 9.33008C7.86282 7.8867 5.15692 5.59995 1 7.99995" stroke="#121212" stroke-width="2" stroke-linecap="round"/>
<path d="M11.6953 10C10.0286 10 6.69531 11.2 6.69531 16" stroke="#121212" stroke-width="2" stroke-linecap="round"/>
<circle cx="11.1953" cy="8.5" r="4" fill="#121212" stroke="#121212"/>
</svg>
